<svg width="32" height="32" viewBox="0 0 32 32" fill="none" xmlns="http://www.w3.org/2000/svg">
<rect width="32" height="32" rx="5" fill="#D45D5D"/>
<path d="M9.935 6.263C10.117 6.137 10.313 6.095 10.523 6.137C10.733 6.179 10.894 6.284 11.006 6.452C11.132 6.62 11.174 6.809 11.132 7.019C10.782 8.601 10.355 10.022 9.851 11.282C9.809 11.394 9.788 11.513 9.788 11.639V24.008C9.788 24.232 9.704 24.421 9.536 24.575C9.382 24.743 9.193 24.827 8.969 24.827C8.745 24.827 8.556 24.743 8.402 24.575C8.248 24.421 8.171 24.232 8.171 24.008V14.663C8.171 14.635 8.157 14.621 8.129 14.621C8.115 14.607 8.101 14.607 8.087 14.621C7.681 15.363 7.254 16.056 6.806 16.7C6.694 16.868 6.533 16.938 6.323 16.91C6.127 16.868 5.994 16.749 5.924 16.553C5.7 15.979 5.777 15.426 6.155 14.894C7.695 12.612 8.836 9.896 9.578 6.746C9.634 6.536 9.753 6.375 9.935 6.263ZM25.097 22.055C25.279 22.181 25.391 22.356 25.433 22.58C25.489 22.79 25.461 22.986 25.349 23.168C25.251 23.35 25.104 23.462 24.908 23.504C24.712 23.56 24.537 23.525 24.383 23.399C22.171 21.733 20.428 19.927 19.154 17.981C19.14 17.953 19.119 17.946 19.091 17.96C19.063 17.96 19.049 17.974 19.049 18.002V23.924C19.049 24.148 18.965 24.337 18.797 24.491C18.643 24.659 18.454 24.743 18.23 24.743C18.006 24.743 17.81 24.659 17.642 24.491C17.488 24.337 17.411 24.148 17.411 23.924V18.086C17.397 18.058 17.369 18.044 17.327 18.044C16.011 19.948 14.282 21.712 12.14 23.336C11.972 23.462 11.783 23.504 11.573 23.462C11.363 23.434 11.209 23.329 11.111 23.147C10.999 22.951 10.964 22.748 11.006 22.538C11.062 22.314 11.181 22.139 11.363 22.013C13.547 20.417 15.255 18.702 16.487 16.868C16.543 16.784 16.515 16.742 16.403 16.742H11.993C11.811 16.742 11.65 16.679 11.51 16.553C11.384 16.413 11.321 16.245 11.321 16.049C11.321 15.867 11.384 15.713 11.51 15.587C11.65 15.447 11.811 15.377 11.993 15.377H17.222C17.348 15.377 17.411 15.314 17.411 15.188V13.76C17.411 13.648 17.348 13.592 17.222 13.592H13.988H13.568C13.246 13.592 12.966 13.473 12.728 13.235C12.49 12.997 12.371 12.717 12.371 12.395V7.838C12.371 7.516 12.49 7.243 12.728 7.019C12.966 6.781 13.246 6.662 13.568 6.662H23.123C23.445 6.662 23.718 6.781 23.942 7.019C24.18 7.243 24.299 7.516 24.299 7.838V12.395C24.299 12.717 24.18 12.997 23.942 13.235C23.718 13.473 23.445 13.592 23.123 13.592H19.238C19.112 13.592 19.049 13.648 19.049 13.76V15.188C19.049 15.314 19.112 15.377 19.238 15.377H24.572C24.768 15.377 24.929 15.447 25.055 15.587C25.181 15.713 25.244 15.867 25.244 16.049C25.244 16.245 25.174 16.413 25.034 16.553C24.908 16.679 24.754 16.742 24.572 16.742H20.078C20.036 16.742 20.001 16.763 19.973 16.805C19.959 16.833 19.966 16.861 19.994 16.889C21.128 18.639 22.829 20.361 25.097 22.055ZM14.156 12.248H22.514C22.64 12.248 22.703 12.192 22.703 12.08V8.195C22.703 8.083 22.64 8.027 22.514 8.027H14.156C14.044 8.027 13.988 8.083 13.988 8.195V12.08C13.988 12.192 14.044 12.248 14.156 12.248Z" fill="white"/>
</svg>
